<?xml version="1.0" standalone="no"?>
<!DOCTYPE svg PUBLIC "-//W3C//DTD SVG 20010904//EN"
 "http://www.w3.org/TR/2001/REC-SVG-20010904/DTD/svg10.dtd">
<svg version="1.0" xmlns="http://www.w3.org/2000/svg"
 width="530.000000pt" height="530.000000pt" viewBox="0 0 530.000000 530.000000"
 preserveAspectRatio="xMidYMid meet">
<metadata>
Created by potrace 1.14, written by Peter Selinger 2001-2017
</metadata>
<g transform="translate(0.000000,530.000000) scale(0.100000,-0.100000)"
fill="#000000" stroke="none">
<path d="M2688 4775 c-2 -2 -30 -6 -63 -9 -115 -12 -208 -55 -268 -123 -35
-40 -72 -110 -82 -153 -5 -22 -14 -30 -38 -36 -32 -7 -94 -32 -112 -47 -5 -4
-30 -20 -53 -36 -53 -34 -147 -125 -170 -163 -9 -16 -20 -28 -24 -28 -4 0 -8
-6 -8 -13 0 -7 -5 -18 -12 -25 -9 -9 -19 -3 -42 24 -38 43 -92 62 -165 59 -58
-3 -65 -5 -141 -25 -93 -24 -168 -90 -175 -153 -1 -12 -3 -26 -4 -31 0 -5 -9
-2 -18 6 -35 30 -114 68 -156 74 -52 8 -144 9 -177 2 -45 -11 -144 -51 -158
-65 -7 -7 -17 -13 -21 -13 -13 0 -91 -76 -91 -90 0 -7 -3 -10 -7 -7 -11 12
-72 -107 -86 -169 -36 -156 10 -329 114 -425 40 -36 49 -63 26 -72 -13 -5 -47
-66 -51 -91 -1 -6 -4 -15 -7 -21 -7 -12 -4 -90 4 -130 8 -38 38 -98 54 -108 7
-4 13 -12 13 -16 0 -9 -50 -30 -92 -40 -65 -15 -142 -72 -169 -125 -22 -41
-28 -131 -11 -162 6 -11 20 -40 31 -65 33 -76 111 -250 136 -304 12 -27 29
-66 38 -85 8 -19 27 -61 41 -93 75 -166 89 -198 86 -206 -1 -2 2 -7 7 -10 4
-3 14 -23 21 -44 52 -147 114 -240 180 -269 56 -25 80 -27 152 -11 36 7 57 8
61 1 3 -5 9 -8 12 -6 3 1 15 -7 27 -19 11 -13 18 -23 14 -23 -3 0 0 -8 7 -17
12 -15 12 -16 -1 -8 -13 8 -13 7 -1 -8 8 -11 9 -17 3 -17 -6 0 -9 -7 -6 -15 4
-8 2 -15 -2 -15 -16 0 -56 -69 -50 -85 3 -8 4 -15 3 -15 -1 0 -31 6 -67 14
-67 14 -115 14 -187 2 -24 -4 -44 -7 -45 -6 -2 1 -16 -4 -33 -10 -29 -11 -40
-15 -86 -25 -26 -5 -66 -31 -97 -61 -32 -31 -51 -97 -41 -148 4 -22 5 -44 3
-48 -3 -5 0 -8 5 -8 6 0 10 -3 10 -7 -1 -5 0 -10 1 -13 1 -3 3 -12 5 -20 14
-52 36 -137 39 -150 42 -177 93 -308 134 -348 61 -58 147 -72 251 -41 118 36
188 71 242 120 l39 36 37 -25 c27 -19 50 -25 87 -25 50 0 109 7 137 18 8 3 32
7 54 10 116 13 160 29 204 72 11 12 16 12 30 0 36 -32 172 -44 256 -22 17 4
49 18 73 31 48 27 63 29 80 12 22 -22 82 -36 140 -32 73 4 109 17 148 55 l32
31 42 -31 c23 -16 64 -37 91 -46 53 -18 187 -27 195 -13 3 5 9 6 15 3 5 -3 31
5 59 18 l49 24 22 -29 c29 -37 95 -57 181 -54 50 2 75 7 95 22 29 21 53 21 53
1 0 -12 20 -28 70 -55 41 -23 132 -24 176 -2 l37 20 35 -36 c117 -121 373
-133 494 -25 92 82 129 152 133 249 2 36 -1 77 -7 91 -15 40 -18 61 -7 61 5 0
9 7 9 15 0 8 4 15 8 15 19 0 40 72 37 129 -4 98 -71 181 -190 240 -93 46 -184
55 -271 25 -48 -16 -63 -11 -64 23 0 7 -7 10 -17 6 -11 -4 -14 -3 -9 5 4 7 2
12 -3 12 -6 0 -11 7 -11 15 0 9 -7 18 -15 21 -11 5 -12 11 -5 24 8 16 6 18
-17 15 l-26 -3 24 19 c13 10 19 19 12 19 -7 0 0 12 15 27 18 18 38 27 67 29
49 3 83 16 112 43 21 20 54 104 60 154 7 57 11 92 13 97 1 3 3 10 5 15 1 6 3
12 4 15 2 3 4 19 6 35 12 108 32 146 134 252 53 55 125 135 161 179 35 43 67
81 71 84 3 3 22 27 42 53 21 27 37 45 37 40 0 -13 35 51 69 127 26 57 -24 172
-95 217 -19 13 -84 45 -94 47 -3 1 -9 4 -15 7 -12 8 -74 28 -112 37 -39 9
-114 9 -139 -1 l-21 -8 19 68 c24 84 27 99 34 146 3 21 7 46 9 55 2 9 4 23 4
30 1 7 41 54 91 105 101 105 147 153 208 223 127 146 146 179 145 254 0 41 -7
70 -24 99 -12 22 -25 41 -28 41 -3 0 -19 12 -36 26 -25 21 -119 72 -147 80 -5
1 -10 3 -13 4 -3 1 -8 3 -12 5 -5 1 -15 4 -23 8 -8 3 -23 6 -32 6 -94 6 -133
-11 -197 -88 -19 -23 -37 -41 -41 -41 -3 0 -7 15 -8 33 -7 96 -34 146 -102
184 -68 38 -140 54 -248 55 -55 1 -69 -3 -107 -30 -31 -22 -46 -27 -54 -19 -6
6 -11 15 -11 21 0 5 -15 24 -34 41 -32 29 -71 46 -138 60 -17 3 -27 11 -26 23
4 104 -84 225 -199 271 -34 14 -95 17 -112 6 -6 -3 -19 -8 -28 -10 -10 -2 -25
-6 -34 -10 -12 -4 -18 1 -23 17 -5 20 -25 49 -65 93 -49 55 -184 121 -261 129
-21 2 -40 2 -42 1z m972 -1067 c8 -29 15 -55 15 -58 1 -3 4 -12 8 -20 3 -8 11
-35 18 -60 6 -25 22 -71 35 -102 29 -70 29 -71 2 -62 -13 4 -30 8 -38 9 -8 1
-26 5 -40 9 -14 3 -36 8 -50 10 -27 3 -31 20 -18 71 4 17 10 53 13 80 4 42 13
92 21 128 1 4 2 16 3 27 2 36 17 21 31 -32z m-190 -1169 c0 -5 4 -8 8 -5 8 5
29 -34 68 -129 9 -22 27 -65 41 -95 25 -54 63 -148 63 -154 0 -2 -25 5 -55 16
-57 19 -97 26 -152 27 l-32 1 5 48 c14 144 22 212 28 237 2 11 5 30 5 43 1 21
21 33 21 11z"/>
<path d="M4542 3295 c-12 -14 -22 -31 -22 -38 0 -8 -3 -8 -9 2 -8 12 -11 12
-24 0 -8 -8 -18 -25 -21 -37 -4 -12 -11 -20 -16 -17 -9 6 -33 -21 -36 -41 -1
-7 5 -19 13 -26 36 -30 86 -12 82 30 -5 45 15 69 51 64 20 -3 37 2 50 13 32
29 23 57 -21 68 -20 5 -31 1 -47 -18z"/>
<path d="M4580 3142 c-21 -17 -21 -18 -3 -40 16 -20 22 -22 46 -13 34 13 36
44 3 59 -20 9 -29 8 -46 -6z"/>
<path d="M4373 3053 c-18 -7 -16 -28 3 -47 21 -22 29 -20 43 11 10 21 9 28 -1
34 -14 10 -27 10 -45 2z"/>
<path d="M4513 3037 c-29 -13 -35 -30 -17 -56 18 -25 41 -27 71 -6 42 29 -5
84 -54 62z"/>
<path d="M4533 2119 c-12 -4 -30 -20 -39 -34 -15 -23 -15 -28 -3 -36 15 -10
57 -4 102 13 26 10 37 41 19 52 -17 10 -58 13 -79 5z"/>
<path d="M497 2098 c-12 -34 53 -85 85 -67 20 11 13 36 -17 61 -24 20 -61 23
-68 6z"/>
<path d="M4318 1997 c-13 -10 -43 -81 -41 -97 1 -3 -4 -14 -10 -25 -22 -39
-35 -114 -22 -125 14 -12 32 5 38 36 9 44 19 54 51 51 25 -2 32 2 34 20 3 17
-3 24 -22 29 -22 5 -23 8 -14 36 10 28 13 30 49 24 21 -3 40 -2 43 3 9 14 -4
40 -22 45 -52 14 -70 14 -84 3z"/>
<path d="M685 1970 c-3 -6 -4 -27 -1 -48 l6 -37 -30 32 c-17 20 -35 30 -44 27
-21 -8 -4 -48 39 -91 19 -19 40 -53 46 -76 15 -51 30 -70 52 -62 12 5 14 12 7
31 -5 13 -7 24 -5 24 2 0 0 12 -6 28 -6 15 -12 49 -14 76 -6 77 -32 126 -50
96z"/>
<path d="M4446 1927 c-34 -72 -57 -158 -51 -185 7 -36 37 -55 67 -43 37 15 56
46 106 172 13 33 9 64 -7 64 -11 0 -29 -37 -48 -100 -4 -11 -13 -26 -20 -33
-7 -7 -13 -19 -13 -26 0 -18 -23 -36 -36 -28 -11 8 -12 22 -3 37 4 6 10 25 14
43 4 18 13 45 21 60 18 35 18 58 -1 66 -9 3 -19 -6 -29 -27z"/>
<path d="M504 1905 c-8 -19 56 -195 79 -218 20 -20 49 -16 79 10 25 22 6 58
-22 43 -31 -17 -38 -12 -55 43 -10 28 -24 62 -31 75 -8 12 -12 22 -9 22 3 0 1
9 -5 20 -13 24 -28 26 -36 5z"/>
<path d="M4613 1893 c-46 -109 -75 -195 -69 -208 10 -27 28 -12 44 38 17 52
32 61 33 20 1 -50 8 -86 18 -96 11 -11 39 38 56 103 7 25 19 61 27 80 18 44
17 64 -2 68 -10 1 -22 -14 -33 -43 -11 -25 -22 -45 -25 -45 -4 0 -8 16 -8 35
-3 68 -4 75 -17 75 -6 0 -17 -12 -24 -27z"/>
<path d="M384 1875 c-8 -20 1 -54 38 -148 34 -87 57 -103 104 -72 28 18 28 33
0 49 -14 8 -20 8 -23 -1 -10 -29 -31 -9 -48 45 -21 65 -54 142 -61 142 -2 0
-7 -7 -10 -15z"/>
<path d="M4782 1868 c-7 -7 -12 -17 -12 -22 0 -6 -6 -23 -14 -37 -26 -50 -57
-156 -50 -173 10 -26 26 -14 41 29 17 50 35 70 33 35 -5 -64 0 -90 18 -90 16
0 62 81 62 112 1 15 25 50 31 44 2 -2 5 8 6 23 1 15 3 34 5 41 2 8 -4 15 -13
17 -11 3 -21 -10 -33 -41 -25 -64 -36 -65 -34 -4 2 71 -12 94 -40 66z"/>
<path d="M300 1838 c0 -22 53 -161 77 -203 9 -15 14 -17 26 -7 12 11 8 27 -29
120 -24 59 -44 108 -44 109 0 2 -7 3 -15 3 -9 0 -15 -9 -15 -22z"/>
<path d="M194 1827 c-26 -14 -34 -27 -34 -57 1 -34 17 -53 66 -78 54 -27 75
-49 67 -68 -4 -11 -14 -13 -33 -9 -16 3 -31 2 -34 -4 -10 -15 23 -41 53 -41
40 0 63 29 56 71 -7 40 -25 58 -83 83 -51 23 -58 32 -42 52 10 11 16 12 27 2
11 -9 16 -9 23 2 20 32 -29 67 -66 47z"/>
<path d="M4935 1808 c-3 -13 -7 -48 -9 -78 -2 -37 -12 -71 -29 -104 -21 -39
-25 -52 -15 -63 10 -12 15 -11 30 9 10 13 26 38 34 56 9 18 38 56 65 84 27 29
49 58 49 65 0 23 -27 14 -53 -17 -14 -16 -28 -30 -31 -30 -3 0 -6 21 -8 47 -3
50 -24 69 -33 31z"/>
<path d="M4255 1661 c-8 -14 5 -40 25 -51 19 -10 60 -3 60 11 0 26 -72 60 -85
40z"/>
<path d="M4386 1613 c-4 -9 -5 -17 -4 -17 2 -1 15 -10 30 -19 15 -9 33 -17 40
-17 7 0 22 -12 33 -27 11 -14 28 -34 38 -44 17 -16 21 -16 37 -2 32 28 2 91
-43 89 -12 -1 -32 9 -45 21 -13 13 -26 23 -30 24 -4 0 -17 2 -29 5 -13 2 -23
-3 -27 -13z"/>
<path d="M623 1581 c-86 -46 -95 -60 -62 -94 15 -14 19 -14 48 4 18 11 38 24
44 30 7 6 27 19 45 30 29 17 31 21 20 39 -17 26 -33 25 -95 -9z"/>
<path d="M4661 1537 c-28 -28 4 -67 55 -67 19 0 34 5 34 11 0 5 5 7 12 3 6 -4
3 5 -8 19 -26 36 -73 54 -93 34z"/>
</g>
</svg>
